<svg width="83" height="20" viewBox="0 0 83 20" fill="none" xmlns="http://www.w3.org/2000/svg">
<g opacity="0.3" clip-path="url(#clip0_216_174)">
<path fill-rule="evenodd" clip-rule="evenodd" d="M0.231413 14.7541L3.16552 12.5064C4.72383 14.5406 6.37861 15.478 8.2225 15.4779C10.0562 15.4778 11.6654 14.551 13.1536 12.5327L16.1284 14.7262C13.9827 17.6362 11.3129 19.1737 8.22275 19.1739C5.14277 19.1742 2.44812 17.6478 0.231413 14.7541Z" fill="white"/>
<path fill-rule="evenodd" clip-rule="evenodd" d="M8.21241 4.98557L2.99022 9.48607L0.577347 6.68626L8.22246 0.0976639L15.809 6.69037L13.3847 9.48024L8.21241 4.98557Z" fill="white"/>
<path d="M36.1571 3.89498L33.2003 3.89517L33.2011 16.2154L36.158 16.2152L36.1571 3.89498Z" fill="white"/>
<path fill-rule="evenodd" clip-rule="evenodd" d="M27.2253 16.2702C25.4822 16.2703 24.0296 15.7055 22.8514 14.5758C21.6731 13.43 21.092 11.9613 21.0918 10.1698C21.0917 8.36221 21.6888 6.87732 22.8669 5.71522C24.0612 4.53693 25.5137 3.95582 27.2406 3.9557C29.371 3.95556 31.2594 4.87538 32.3569 6.31174L30.4365 8.32932C29.5164 7.34486 28.5158 6.84461 27.4345 6.84468C26.5145 6.84474 25.756 7.15143 25.1266 7.78092C24.5133 8.41041 24.2067 9.20127 24.2068 10.1535C24.2069 11.0734 24.5136 11.8481 25.1269 12.4775C25.7564 13.0908 26.515 13.3974 27.4188 13.3973C28.597 13.3972 29.6298 12.8807 30.4851 11.8639L32.4867 13.7843C31.938 14.5106 31.1955 15.1078 30.2755 15.576C29.3558 16.0441 28.3389 16.2701 27.2253 16.2702Z" fill="white"/>
<path fill-rule="evenodd" clip-rule="evenodd" d="M40.5922 4.88028C40.5923 5.76486 39.8755 6.48198 38.9909 6.48204C38.1062 6.4821 37.3891 5.76507 37.389 4.88049C37.389 3.99594 38.106 3.27882 38.9907 3.27876C39.8753 3.2787 40.5922 3.99573 40.5922 4.88028ZM40.4692 7.22113L37.5124 7.22133L37.513 16.2151L40.4698 16.2149L40.4692 7.22113Z" fill="white"/>
<path fill-rule="evenodd" clip-rule="evenodd" d="M46.1854 16.285C44.7814 16.2851 43.6515 15.8494 42.7639 14.9779C41.8922 14.1065 41.4562 12.9929 41.4561 11.621C41.456 10.2492 41.8919 9.13548 42.7794 8.26391C43.6671 7.39232 44.8129 6.95647 46.2332 6.95638C48.0894 6.95625 49.7194 7.85994 50.478 9.55456L48.2024 10.749C47.7505 9.99051 47.1212 9.60319 46.298 9.60324C45.7009 9.60328 45.2166 9.797 44.8294 10.1844C44.4581 10.5717 44.2645 11.0559 44.2645 11.6208C44.2646 12.799 45.12 13.6705 46.2661 13.6704C47.089 13.6703 47.8475 13.2184 48.1704 12.5244L50.4461 13.88C49.6714 15.3648 48.0738 16.2849 46.1854 16.285Z" fill="white"/>
<path fill-rule="evenodd" clip-rule="evenodd" d="M54.1449 3.89379L51.1881 3.89398L51.1889 16.2142L54.1457 16.214L54.1455 13.0776L54.4919 12.7545L57.195 16.2138L60.6347 16.2136L56.4816 10.8988L60.4263 7.2198L56.8133 7.22004L54.1453 9.70845L54.1449 3.89379Z" fill="white"/>
<path fill-rule="evenodd" clip-rule="evenodd" d="M61.1677 11.558L61.1672 3.89331L64.2475 3.89311L64.248 11.3861C64.2481 12.7257 65.0287 13.3713 66.1577 13.3712C67.2701 13.3711 68.0672 12.6932 68.0671 11.3859L68.0666 3.89285L71.1466 3.89264L71.1471 11.5573C71.1473 15.0757 68.6773 16.3993 66.1579 16.3995C63.6547 16.3997 61.1679 15.0764 61.1677 11.558Z" fill="white"/>
<path fill-rule="evenodd" clip-rule="evenodd" d="M77.8005 16.4588C80.182 16.4587 82.1126 14.3625 82.1124 11.7768C82.1122 9.1912 80.1813 7.09527 77.7999 7.09543C76.8292 7.0955 75.9335 7.44382 75.2127 8.03155L75.2127 7.21882L72.379 7.21901L72.3799 19.9089L75.2135 19.9087L75.2132 15.5231C75.9341 16.1107 76.8298 16.4589 77.8005 16.4588ZM75.213 11.7821L75.213 11.7725C75.2155 10.618 76.1244 9.68279 77.2456 9.68272C78.3685 9.68264 79.2787 10.6203 79.2788 11.777C79.2788 12.9337 78.3688 13.8715 77.2459 13.8716C76.1247 13.8717 75.2157 12.9366 75.213 11.7821Z" fill="white"/>
</g>
<defs>
<clipPath id="clip0_216_174">
<rect width="82.3188" height="20" fill="white" transform="translate(0 0.00552572)"/>
</clipPath>
</defs>
</svg>
