<svg width="95" height="22" viewBox="0 0 95 22" fill="none" xmlns="http://www.w3.org/2000/svg">
<g opacity="0.3" clip-path="url(#clip0_216_186)">
<path d="M26.6153 4.68274L31.1923 4.68243C35.1118 4.68217 37.5902 7.21074 37.5904 11.1556C37.5907 15.1004 35.1254 17.6293 31.1932 17.6296L26.6162 17.6299L26.6153 4.68274ZM31.0919 15.2652C33.5574 15.265 34.9102 13.6845 34.91 11.1684C34.9098 8.63965 33.5568 7.05928 31.0913 7.05945L29.2959 7.05957L29.2965 15.2653L31.0919 15.2652Z" fill="white"/>
<path d="M44.5318 10.7884C44.1777 10.5735 43.7099 10.4724 43.2168 10.4724C42.3318 10.4725 41.6111 10.9404 41.4215 11.8001L41.4219 17.6415L38.8173 17.6417L38.8167 8.20951L41.4339 8.20933L41.434 9.13232C41.8385 8.46218 42.6098 7.99431 43.5454 7.99425C43.9879 7.99422 44.3925 8.0827 44.5316 8.15855L44.5318 10.7884Z" fill="white"/>
<rect x="-23.5" y="-16.4936" width="159" height="59" rx="5.5" stroke="#1B1B1B"/>
<path d="M49.7541 17.8559C47.0104 17.8561 45.1264 15.8332 45.1262 12.9378C45.126 10.0298 47.0098 7.99401 49.7534 7.99383C52.4971 7.99365 54.3685 10.0165 54.3687 12.9372C54.3689 15.8326 52.4978 17.8557 49.7541 17.8559ZM49.7536 10.2191C48.4386 10.2192 47.7307 11.3572 47.7308 12.9376C47.7309 14.4928 48.4517 15.6433 49.754 15.6433C51.0563 15.6432 51.7769 14.5052 51.7768 12.9374C51.7767 11.3569 51.0559 10.219 49.7536 10.2191Z" fill="white"/>
<path d="M58.1118 21.1301L55.4945 21.1302L55.4937 8.2084L58.1109 8.20823L58.111 8.99213C58.5282 8.48636 59.4638 8.00584 60.4753 8.00577C63.2189 8.00558 64.7743 10.2813 64.7744 12.9492C64.7746 15.6043 63.2196 17.8677 60.4759 17.8678C59.4644 17.8679 58.5288 17.3875 58.1115 16.8818L58.1118 21.1301ZM58.1113 14.4795C58.4275 15.1369 59.1229 15.5794 59.8815 15.5794C61.2976 15.5793 62.1447 14.4413 62.1446 12.9367C62.1445 11.4195 61.2973 10.2816 59.8812 10.2817C59.0973 10.2817 58.4272 10.7496 58.1111 11.3818L58.1113 14.4795Z" fill="white"/>
<path d="M68.5426 17.6397L65.9001 17.6399L65.8992 3.92148L68.5417 3.9213L68.542 8.99142C68.9592 8.48564 69.8948 8.00512 70.9063 8.00505C73.65 8.00487 75.1927 10.2427 75.1929 12.9484C75.1931 15.6542 73.6507 17.8669 70.907 17.8671C69.8955 17.8672 68.9598 17.3868 68.5426 16.8811L68.5426 17.6397ZM68.5424 14.4788C68.8333 15.1362 69.5287 15.5787 70.3126 15.5787C71.7287 15.5786 72.5757 14.4406 72.5756 12.936C72.5755 11.4187 71.7283 10.2809 70.3122 10.281C69.5536 10.281 68.833 10.7489 68.5422 11.3811L68.5424 14.4788Z" fill="white"/>
<path d="M80.7564 17.8791C78.0127 17.8793 76.1286 15.8564 76.1284 12.961C76.1282 10.053 78.012 8.01724 80.7557 8.01705C83.4994 8.01687 85.3708 10.0397 85.371 12.9604C85.3712 15.8558 83.4874 17.8789 80.7564 17.8791ZM80.7559 10.2423C79.4409 10.2424 78.7329 11.3804 78.733 12.9609C78.7332 14.516 79.4539 15.6666 80.7562 15.6665C82.0585 15.6664 82.7791 14.5284 82.779 12.9606C82.7789 11.3801 82.0582 10.2423 80.7559 10.2423Z" fill="white"/>
<path d="M91.2503 12.7704L94.6897 17.6506L91.7943 17.6508L89.7711 14.6923L87.723 17.6511L84.9793 17.6512L88.3802 12.8338L85.181 8.21904L88.0764 8.21885L89.8973 10.8992L91.7431 8.2186L94.4867 8.21842L91.2503 12.7704Z" fill="white"/>
<path d="M6.94141 0.246155L0.126759 4.63397L4.84311 8.4394L11.6957 4.20331L6.94141 0.246155Z" fill="white"/>
<path d="M0.127264 12.157L6.94251 16.6324L11.6963 12.6746L4.84311 8.43941L0.127264 12.157Z" fill="white"/>
<path d="M11.6963 12.6746L16.4506 16.6317L23.2399 12.206L18.5362 8.43848L11.6963 12.6746Z" fill="white"/>
<path d="M23.2394 4.67036L16.4495 0.24553L11.6957 4.20332L18.5362 8.43849L23.2394 4.67036Z" fill="white"/>
<path d="M11.709 13.5217L6.94258 17.4795L4.89422 16.152L4.89432 17.644L11.7095 21.7274L18.5116 17.6431L18.5115 16.1511L16.4759 17.4788L11.709 13.5217Z" fill="white"/>
</g>
<defs>
<clipPath id="clip0_216_186">
<rect width="94.8276" height="22" fill="white" transform="translate(0 0.00637817)"/>
</clipPath>
</defs>
</svg>
