<svg width="82" height="28" viewBox="0 0 82 28" fill="none" xmlns="http://www.w3.org/2000/svg">
<g opacity="0.3" clip-path="url(#clip0_216_216)">
<path d="M28.0091 14.6208C28.0117 13.4843 27.6629 12.3747 27.0102 11.4442C26.3577 10.5138 25.4333 9.8078 24.3639 9.4231C24.4612 8.92707 24.5102 8.42278 24.5103 7.91728C24.5112 6.2441 23.9813 4.61375 22.9972 3.26064C22.013 1.90752 20.6252 0.901331 19.033 0.386738C17.4411 -0.127857 15.7267 -0.12435 14.1368 0.396754C12.5468 0.917859 11.163 1.92972 10.1844 3.28685C9.46233 2.72737 8.57757 2.41843 7.66415 2.40689C6.75073 2.39534 5.85845 2.68178 5.12243 3.22282C4.3864 3.76387 3.84677 4.53005 3.58524 5.40531C3.32373 6.28055 3.35458 7.21719 3.67312 8.07333C2.60121 8.46412 1.67471 9.17378 1.01819 10.1069C0.361679 11.04 0.00666836 12.1518 0.000910749 13.2926C-0.00198709 14.4331 0.348717 15.5464 1.00474 16.4792C1.66075 17.4121 2.58983 18.1187 3.66405 18.5017C3.569 18.9976 3.52052 19.5011 3.51927 20.0059C3.51778 21.6771 4.04709 23.3056 5.03086 24.6567C6.01465 26.0077 7.40205 27.0113 8.99305 27.523C10.5841 28.0346 12.2964 28.0278 13.8833 27.5033C15.4701 26.979 16.8494 25.9643 17.8223 24.6054C18.5424 25.1663 19.4256 25.477 20.3382 25.4907C21.2508 25.5043 22.1429 25.2198 22.8791 24.6806C23.6156 24.1412 24.156 23.3766 24.4183 22.5025C24.6808 21.6283 24.6512 20.6926 24.3337 19.8368C25.4061 19.4467 26.3333 18.7372 26.9901 17.804C27.6471 16.8709 28.002 15.7587 28.0075 14.6175" fill="white"/>
<path d="M11.0119 12.0203L17.1412 14.8183L23.3269 9.40017C23.4159 8.95314 23.4601 8.49831 23.4586 8.04248C23.4582 6.56679 22.9855 5.12996 22.1097 3.94225C21.2339 2.75454 20.001 1.8783 18.5913 1.44176C17.1816 1.00521 15.6693 1.03127 14.2755 1.51613C12.8817 2.00099 11.6797 2.91918 10.8454 4.13635L9.81526 9.46619L11.0119 12.0203Z" fill="black"/>
<path d="M4.66845 18.5112C4.57811 18.9652 4.53287 19.4271 4.53342 19.8901C4.53355 21.3719 5.00867 22.8147 5.88906 24.0066C6.76945 25.1987 8.00872 26.077 9.42501 26.5129C10.8413 26.9487 12.36 26.9192 13.7583 26.4284C15.1565 25.9378 16.3607 25.0118 17.1939 23.7864L18.2142 18.468L16.8515 15.8634L10.6995 13.0606L4.66845 18.5112Z" fill="black"/>
<path d="M4.63027 7.90538L8.83034 8.89649L9.74979 4.12015C9.17849 3.68702 8.48227 3.4506 7.76537 3.44628C7.04846 3.44195 6.34943 3.66998 5.77297 4.09621C5.19651 4.52242 4.77362 5.12391 4.56762 5.81059C4.36162 6.49729 4.3836 7.23222 4.63027 7.90538Z" fill="black"/>
<path d="M4.2657 8.90494C3.34419 9.21596 2.54252 9.80644 1.97219 10.5942C1.40185 11.382 1.09119 12.328 1.08343 13.3005C1.08283 14.2404 1.36833 15.1583 1.90198 15.932C2.43561 16.7058 3.19212 17.2988 4.07093 17.6322L9.9636 12.3053L8.88088 9.9937L4.2657 8.90494Z" fill="black"/>
<path d="M18.2716 23.7863C18.842 24.2172 19.5365 24.4522 20.2513 24.4559C20.9661 24.4596 21.663 24.2321 22.2378 23.8072C22.8127 23.3823 23.2347 22.7827 23.4409 22.0982C23.6469 21.4138 23.626 20.6809 23.3813 20.0092L19.1845 19.0328L18.2716 23.7863Z" fill="black"/>
<path d="M19.1243 17.9274L23.7443 19.0064C24.6664 18.6962 25.4686 18.1061 26.0391 17.318C26.6096 16.53 26.9198 15.5836 26.9266 14.6109C26.9257 13.6729 26.6396 12.7574 26.1065 11.9858C25.5731 11.2142 24.8179 10.623 23.9407 10.2906L17.8983 15.5817L19.1243 17.9274Z" fill="black"/>
<path d="M39.1622 19.6028L39.7222 19.5458L39.7613 20.6853C38.5152 20.8736 37.2578 20.9771 35.9976 20.9949C34.6086 20.995 33.6241 20.593 33.0445 19.7888C32.465 18.9847 32.1756 17.7333 32.1766 16.0349C32.1764 12.6521 33.5209 10.9601 36.2102 10.9588C37.5126 10.9587 38.4839 11.3223 39.1243 12.0493C39.7647 12.7764 40.086 13.9159 40.0882 15.4679L40.0118 16.5683L33.6434 16.5688C33.6435 17.6367 33.8368 18.4278 34.2231 18.9422C34.6096 19.4566 35.2813 19.7138 36.2385 19.7137C37.198 19.7169 38.1724 19.6799 39.1622 19.6028ZM38.641 15.4159C38.6409 14.2319 38.4515 13.3957 38.0727 12.9073C37.6938 12.419 37.0764 12.1743 36.2201 12.1733C35.3638 12.1733 34.7203 12.4306 34.2894 12.945C33.8587 13.4595 33.6367 14.2832 33.6238 15.4162L38.641 15.4159Z" fill="white"/>
<path d="M42.1072 20.918L42.1063 8.22031L43.5535 8.22021L43.5544 20.9179L42.1072 20.918Z" fill="white"/>
<path d="M52.6686 14.0638L52.6689 18.9312C52.669 19.4196 53.8704 19.3935 53.8704 19.3935L53.7972 20.673C52.7798 20.6731 51.9381 20.7578 51.4335 20.2678C50.3407 20.7533 49.1569 21.0004 47.9612 20.9925C47.0745 20.9925 46.3989 20.7414 45.9344 20.2389C45.4699 19.7364 45.2381 19.0143 45.2391 18.0722C45.2391 17.1324 45.4772 16.4405 45.9536 15.9966C46.4301 15.5527 47.1761 15.2813 48.192 15.1825L51.2215 14.8941L51.2214 14.0639C51.2214 13.4127 51.0802 12.9428 50.7981 12.6541C50.6434 12.509 50.4611 12.3967 50.2618 12.324C50.0625 12.2513 49.8508 12.2196 49.639 12.231L45.8362 12.2312L45.8361 10.9566L49.5428 10.9563C50.6368 10.9562 51.4312 11.2074 51.9261 11.7099C52.4211 12.2123 52.6686 12.997 52.6686 14.0638ZM46.7221 18.0005C46.7222 19.1844 47.2106 19.7765 48.1874 19.7764C49.0686 19.7754 49.9432 19.6251 50.7741 19.3318L51.2169 19.1771L51.2167 15.9929L48.3662 16.2634C47.7867 16.3155 47.3683 16.4827 47.1111 16.7649C46.8539 17.047 46.7242 17.4589 46.7221 18.0005Z" fill="white"/>
<path d="M58.3189 12.2499C56.9156 12.25 56.214 12.7384 56.2141 13.7152C56.2141 14.1667 56.377 14.4852 56.7026 14.6707C57.0281 14.8563 57.7614 15.0494 58.9019 15.2501C60.048 15.4508 60.8587 15.7308 61.334 16.09C61.8094 16.4492 62.0478 17.1241 62.0488 18.115C62.0489 19.1069 61.7305 19.8341 61.0934 20.2965C60.4564 20.7588 59.5269 20.9906 58.3048 20.9918C57.5072 20.9918 54.8439 20.6957 54.8439 20.6957L54.9219 19.4422C56.4522 19.5887 57.5575 19.6976 58.3047 19.6976C59.052 19.6975 59.6201 19.5787 60.0124 19.341C60.4047 19.1033 60.6 18.7044 60.6 18.1444C60.6 17.5844 60.4371 17.2051 60.0985 17.0049C59.7599 16.8047 59.0306 16.6159 57.8992 16.4353C56.7678 16.2547 55.9619 15.991 55.4866 15.6443C55.0112 15.2976 54.7719 14.653 54.7718 13.7136C54.7717 12.7743 55.0973 12.0857 55.7663 11.6299C56.4353 11.174 57.2558 10.9542 58.2456 10.9541C59.0302 10.9541 61.7537 11.1541 61.7537 11.1541L61.7538 12.4157C60.3163 12.3523 59.141 12.2499 58.3189 12.2499Z" fill="white"/>
<path d="M69.0241 12.4023L65.9555 12.4025L65.9558 17.0159C65.9559 18.1218 66.0362 18.8485 66.1969 19.1957C66.3597 19.544 66.7406 19.7166 67.3446 19.7165L69.062 19.6008L69.1598 20.7973C68.5094 20.9177 67.8509 20.9889 67.19 21.0107C66.1872 21.0108 65.4926 20.7662 65.1062 20.2767C64.7199 19.7872 64.5271 18.8544 64.5281 17.4784L64.5278 12.4026L63.1636 12.4026L63.1635 11.1492L64.5342 11.1491L64.534 8.19605L65.9617 8.19595L65.9619 11.149L69.024 11.1488L69.0241 12.4023Z" fill="white"/>
<path d="M71.036 9.9163L71.0359 8.2363L72.4831 8.2362L72.4832 9.9162L71.036 9.9163ZM71.0367 20.916L71.0361 11.1486L72.4833 11.1485L72.484 20.916L71.0367 20.916Z" fill="white"/>
<path d="M78.7524 10.9544C79.4752 10.9852 80.195 11.0629 80.9077 11.187L81.3701 11.2439L81.3132 12.4209C80.5568 12.3252 79.7963 12.2676 79.0341 12.2485C77.9401 12.2486 77.1973 12.5091 76.8055 13.0301C76.4137 13.551 76.2175 14.5158 76.2164 15.9245C76.2165 17.3354 76.4001 18.3164 76.7669 18.8677C77.1337 19.4191 77.8988 19.6958 79.0623 19.6978L81.3413 19.5251L81.4 20.7216C80.5128 20.8719 79.6167 20.9623 78.7172 20.992C77.213 20.9921 76.1744 20.6059 75.6013 19.8332C75.0283 19.0604 74.7417 17.7581 74.7415 15.9262C74.7414 14.0932 75.0501 12.8066 75.6676 12.0664C76.285 11.3262 77.3133 10.9555 78.7524 10.9544Z" fill="white"/>
</g>
<defs>
<clipPath id="clip0_216_216">
<rect width="81.3953" height="28" fill="white" transform="translate(0 0.00546373)"/>
</clipPath>
</defs>
</svg>
