<svg width="61" height="25" viewBox="0 0 61 25" fill="none" xmlns="http://www.w3.org/2000/svg">
<g opacity="0.3">
<path fill-rule="evenodd" clip-rule="evenodd" d="M60.081 12.9172C60.0808 8.64487 58.0111 5.27385 54.0558 5.27411C50.0839 5.27438 47.6809 8.6457 47.6812 12.8847C47.6815 17.9081 50.5188 20.4446 54.5909 20.4443C56.5769 20.4442 58.0788 19.9935 59.2136 19.3592L59.2134 16.0214C58.0786 16.5889 56.7769 16.9395 55.1247 16.9396C53.5059 16.9397 52.0706 16.3724 51.8869 14.4031L60.0478 14.4025C60.0477 14.1856 60.0811 13.3178 60.081 12.9172ZM51.8366 11.3323C51.8365 9.44649 52.988 8.66204 54.0394 8.66196C55.0574 8.6619 56.1422 9.4462 56.1423 11.332L51.8366 11.3323Z" fill="white"/>
<path fill-rule="evenodd" clip-rule="evenodd" d="M41.2385 5.27495C39.603 5.27505 38.5517 6.04282 37.9676 6.5769L37.7506 5.5422L34.079 5.54245L34.0803 25.0017L38.2525 24.1169L38.2688 19.394C38.8697 19.8278 39.7542 20.4453 41.2229 20.4452C44.2102 20.445 46.9303 18.0416 46.9299 12.7512C46.9129 7.91141 44.1591 5.27475 41.2385 5.27495ZM40.238 16.7737C39.2533 16.7737 38.6692 16.4233 38.2686 15.9894L38.2515 9.79784C38.6854 9.31383 39.2862 8.98002 40.2374 8.97995C41.7561 8.97985 42.8076 10.682 42.8078 12.8683C42.8079 15.1046 41.7733 16.7736 40.238 16.7737Z" fill="white"/>
<path fill-rule="evenodd" clip-rule="evenodd" d="M28.3379 4.29119L32.5268 3.38971L32.5266 0.00185965L28.3377 0.886653L28.3379 4.29119Z" fill="white"/>
<path d="M32.5271 5.55929L28.3381 5.55957L28.3391 20.1624L32.528 20.1621L32.5271 5.55929Z" fill="white"/>
<path fill-rule="evenodd" clip-rule="evenodd" d="M23.849 6.7948L23.5819 5.55984L19.9771 5.56008L19.978 20.1629L24.1503 20.1626L24.1496 10.2661C25.1342 8.98097 26.8031 9.2145 27.3204 9.39804L27.3202 5.55959C26.7861 5.35936 24.8335 4.99233 23.849 6.7948Z" fill="white"/>
<path fill-rule="evenodd" clip-rule="evenodd" d="M15.5042 1.93891L11.4322 2.80701L11.4164 16.1748C11.4165 18.6448 13.2691 20.4638 15.7391 20.4636C17.1076 20.4635 18.1089 20.2131 18.6596 19.9127L18.6594 16.5248C18.1253 16.7418 15.4885 17.5097 15.4884 15.0397L15.488 9.11514L18.6589 9.11493L18.6586 5.56019L15.4877 5.56041L15.5042 1.93891Z" fill="white"/>
<path fill-rule="evenodd" clip-rule="evenodd" d="M4.22309 9.80013C4.22304 9.14926 4.75707 8.89889 5.64159 8.89883C6.90994 8.89875 8.5121 9.28248 9.78051 9.96664L9.78024 6.04475C8.39503 5.49411 7.02652 5.27724 5.64134 5.27734C2.25349 5.27756 0.000607029 7.04674 0.000805314 10.0007C0.00111451 14.6068 6.34285 13.8721 6.34299 15.8581C6.34304 16.6258 5.6755 16.8761 4.74092 16.8762C3.35574 16.8763 1.58668 16.309 0.184755 15.5414L0.185022 19.5133C1.73714 20.1808 3.30591 20.4644 4.74116 20.4643C8.21246 20.4641 10.5989 18.745 10.5987 15.7576C10.5816 10.7843 4.22321 11.6693 4.22309 9.80013Z" fill="white"/>
</g>
</svg>
