<svg width="88" height="14" viewBox="0 0 88 14" fill="none" xmlns="http://www.w3.org/2000/svg">
<g opacity="0.3">
<path d="M6.1296 3.83635L7.52264 3.83625C8.39329 3.83619 9.29877 4.01026 9.29884 5.02022C9.2989 5.89087 8.74173 6.51777 7.10491 6.51788L5.57256 6.51798L6.1296 3.83635ZM0.000890672 13.6925L4.0407 13.6922L4.87626 9.68719L7.62751 9.68701C11.1101 9.68677 13.3736 7.38811 13.3735 4.70651C13.3733 1.78113 11.806 0.423021 9.36819 0.423184L2.78608 0.423626L0.000890672 13.6925Z" fill="white"/>
<path d="M18.3538 4.98479L18.8416 8.95491L16.2993 8.95509L18.3538 4.98479ZM9.61307 13.6919L13.7922 13.6916L14.802 11.8109L19.1204 11.8106L19.3295 13.6912L23.3345 13.6909L21.3137 0.422387L17.2739 0.422658L9.61307 13.6919Z" fill="white"/>
<path d="M25.0407 8.81518L22.1844 0.422318L26.2939 0.422042L27.548 5.36724L30.7865 0.42174L35.5924 0.421418L29.1154 8.78008L28.1058 13.6906L24.0311 13.6909L25.0407 8.81518Z" fill="white"/>
<path d="M45.3441 8.6396C45.1004 9.99783 44.0559 14.0029 38.5185 14.0033C34.6529 14.0035 32.8069 11.4962 32.8067 7.94393C32.8064 3.66033 35.4878 0.0730776 40.0151 0.0727737C42.9753 0.072575 45.6222 1.36096 45.6921 5.33111L41.8264 5.33137C41.8612 4.07764 41.2691 3.38116 40.0154 3.38124C37.7517 3.38139 36.916 5.9934 36.9161 7.874C36.9162 8.98843 37.1949 10.6601 39.0755 10.6599C40.3641 10.6598 41.0954 9.78915 41.3391 8.60505L45.3441 8.6396Z" fill="white"/>
<path d="M47.7117 0.420607L51.8212 0.420331L50.8463 5.01742L54.5727 5.01717L55.5475 0.420081L59.657 0.419805L56.8718 13.6887L52.7972 13.689L53.8764 8.43017L50.1501 8.43042L49.036 13.6892L44.9613 13.6895L47.7117 0.420607Z" fill="white"/>
<path d="M60.7362 0.41972L71.7063 0.418983L71.01 3.83197L64.1145 3.83244L63.7664 5.46928L70.1743 5.46885L69.5128 8.63806L63.1049 8.63849L62.7567 10.2753L69.7916 10.2749L69.0953 13.6879L57.951 13.6886L60.7362 0.41972Z" fill="white"/>
<path d="M74.5282 6.65263L71.4631 0.418987L75.9208 0.418688L77.2096 3.86637L79.8561 0.418424L84.6969 0.418099L79.16 6.65232L82.3993 13.6869L77.8023 13.6873L76.3393 9.9958L73.2401 13.6876L68.2251 13.6879L74.5282 6.65263Z" fill="white"/>
<path d="M85.2188 1.01011C85.2187 0.522546 85.567 0.139437 86.0545 0.139404C86.5073 0.139374 86.8904 0.522434 86.8904 1.01C86.8904 1.49756 86.5422 1.88067 86.0546 1.8807C85.6019 1.88073 85.2188 1.49767 85.2188 1.01011ZM85.0446 1.01012C85.0447 1.60216 85.4974 2.02004 86.0546 2.02001C86.6119 2.01997 87.0646 1.60203 87.0645 1.00999C87.0645 0.45277 86.6117 6.28217e-05 86.0545 0.000100225C85.4973 0.000137629 85.0446 0.452906 85.0446 1.01012ZM85.6715 1.60212L85.8457 1.60211L85.8456 1.11455L86.0198 1.11453L86.3332 1.6369L86.5422 1.63689L86.1939 1.11452C86.368 1.11451 86.5073 1.01002 86.5073 0.801067C86.5073 0.557285 86.368 0.452817 86.0894 0.452835L85.6715 0.452864L85.6715 1.60212ZM85.8456 0.592156L86.0894 0.592139C86.2287 0.59213 86.3332 0.626949 86.3332 0.766253C86.3332 0.940383 86.1939 0.975218 86.0197 0.97523L85.8456 0.975241L85.8456 0.592156Z" fill="white"/>
</g>
</svg>
